<?xml version="1.0" standalone="no"?>
<!DOCTYPE svg PUBLIC "-//W3C//DTD SVG 20010904//EN"
 "http://www.w3.org/TR/2001/REC-SVG-20010904/DTD/svg10.dtd">
<svg version="1.0" xmlns="http://www.w3.org/2000/svg"
 width="700.000000pt" height="700.000000pt" viewBox="0 0 700.000000 700.000000"
 preserveAspectRatio="xMidYMid meet">
<metadata>
Created by potrace 1.11, written by Peter Selinger 2001-2013
</metadata>
<g transform="translate(0.000000,700.000000) scale(0.100000,-0.100000)"
fill="#000000" stroke="none">
<path d="M5975 6273 c-77 -9 -236 -47 -314 -75 -226 -79 -429 -209 -625 -398
-268 -259 -423 -523 -661 -1125 -138 -348 -226 -539 -302 -652 -109 -164 -389
-441 -610 -606 -285 -210 -515 -317 -1043 -481 -327 -101 -351 -110 -500 -170
-680 -278 -1056 -742 -1170 -1447 -24 -152 -42 -413 -30 -463 10 -46 51 -101
93 -124 30 -16 101 -17 1072 -17 l1040 0 41 22 c62 33 108 92 163 205 146 305
442 642 851 967 404 322 971 588 1695 796 121 34 281 77 355 94 154 36 188 53
227 112 l28 43 3 1579 c1 1068 -1 1591 -8 1618 -13 48 -55 98 -97 115 -30 13
-134 16 -208 7z"/>
</g>
</svg>
